<svg width="364.65000000000003" height="64.87525777705841" viewBox="0 0 369.6666666666667 65.76777812035081" className="looka-1j8o68f">
        <defs id="SvgjsDefs3637">
            <linearGradient id="SvgjsLinearGradient3644">
                <stop id="SvgjsStop3645" stop-color="#00ff8f" offset="0"></stop>
                <stop id="SvgjsStop3646" stop-color="#00a1ff" offset="1"></stop>
            </linearGradient>
        </defs>
        <g transform="matrix(0.8497678270297173,0,0,0.8497678270297173,-0.8123781188181743,-9.711146299403485)">
            <g fill="url(#SvgjsLinearGradient3644)" > 
                <path d="M64.253,39.363c-0.644-0.647-1.326-0.97-2.067-0.973l-6.673-0.001l0.658-0.764c0,0,3.394-4.666,2.027-8.007   c-1.144-2.8-4.71-4.101-7.595-4.144h-15.57c-0.989,0-1.834,0.381-2.554,1.172L21.496,39.298c-0.018,0.014-1.156,1.186-1.17,2.448   c-0.011,0.917,0.31,1.799,0.965,2.454c0.654,0.657,1.535,0.952,2.457,0.952c0.979,0,1.737-0.458,2.462-1.241l10.19-11.875   l6.61,0.103l-22.552,26.09H5.346c-1.23,0-2.274,0.385-3.118,1.165c-0.845,0.765-1.272,1.77-1.272,3   c0,1.163,0.428,2.146,1.282,2.954c0.845,0.811,1.862,1.208,3.038,1.208h17.753c0.71,0,1.366-0.062,1.955-0.188   c1.505-0.264,2.553-0.718,3.141-1.373l8.726-9.711l10.199,9.838L42.932,83.51c-0.131,0.4-0.198,0.72-0.198,0.989   c0,1.17,0.424,2.188,1.271,3.046c0.856,0.849,1.866,1.278,3.042,1.278c2.223,0,3.598-1.151,4.122-3.448l5.002-22.348   c0.586-2.357,0.333-4.099-0.769-5.214l-8.924-8.923l3.144-3.655l12.493-0.006c0.831-0.086,1.54-0.424,2.104-0.989   c0.698-0.694,1.046-1.516,1.02-2.469C65.235,40.819,64.899,40.019,64.253,39.363z"></path>
                <circle cx="59.405" cy="18.486" r="7.058"></circle>
                <path d="M97.804,39.669c-0.39-0.393-0.805-0.589-1.254-0.591h-4.046l0.397-0.463c0,0,2.059-2.83,1.23-4.856   c-0.692-1.698-2.856-2.487-4.605-2.513H79.139c-0.601,0-1.113,0.231-1.55,0.711l-6.661,7.672c-0.01,0.009-0.701,0.719-0.709,1.484   c-0.007,0.557,0.188,1.092,0.585,1.488c0.396,0.399,0.932,0.578,1.49,0.578c0.593,0,1.053-0.278,1.493-0.753l6.181-7.201   l4.952,0.062L71.244,51.108h-9.165c-0.746,0-1.379,0.234-1.892,0.707c-0.511,0.464-0.771,1.073-0.771,1.819   c0,0.704,0.261,1.301,0.778,1.792c0.512,0.492,1.129,0.732,1.842,0.732h10.767c0.431,0,0.829-0.038,1.185-0.114   c0.913-0.159,1.549-0.436,1.905-0.833l5.291-5.888l6.186,5.965L84.873,66.44c-0.079,0.244-0.119,0.437-0.119,0.601   c0,0.71,0.257,1.327,0.771,1.848c0.519,0.515,1.132,0.775,1.844,0.775c1.348,0,2.182-0.699,2.498-2.092l3.034-13.553   c0.356-1.43,0.204-2.486-0.466-3.163l-5.411-5.411l1.907-2.216l7.576-0.004c0.504-0.052,0.935-0.257,1.275-0.6   c0.425-0.42,0.635-0.919,0.618-1.497C98.398,40.552,98.195,40.066,97.804,39.669z"></path>
                <circle cx="94.741" cy="26.885" r="4.281"></circle>
            </g>
        </g>
        
        <g id="SvgjsG3639" transform="matrix(2.18507577839532,0,0,2.18507577839532,101.4704473718934,-10.503768977315286)" fill="#ffffff">
            <path d="M10.76 16.64 l0.82 0 c-0.46 1.76 -1.8 3.64 -4.84 3.64 c-3.58 0 -6.04 -2.72 -6.04 -6.56 c0 -3.68 2.44 -6.46 5.8 -6.46 c1.54 0 2 0.42 3.18 0.42 c0.22 0 0.38 0 0.76 -0.08 c0.18 1.14 0.46 2.24 0.98 3.44 l-1.18 0 c-0.82 -1.88 -2 -3.06 -3.98 -3.06 c-1.62 0 -3.06 1.44 -3.06 5.18 c0 3.64 1.46 6.32 3.86 6.32 c1.7 0 3.02 -0.84 3.7 -2.84 z M21.76 18.62 c0 0.5 0.54 0.66 1.22 0.74 l0 0.64 c-1.56 -0.06 -3.12 -0.06 -4.7 0 l0 -0.64 c0.68 -0.06 1.22 -0.24 1.22 -0.74 l0 -5.32 c0 -1.5 -0.22 -2.5 -1.26 -2.5 c-1.38 0 -2.46 1.6 -2.68 2 l0 5.82 c0 0.5 0.54 0.68 1.22 0.74 l0 0.64 c-1.56 -0.06 -3.12 -0.06 -4.68 0 l0 -0.64 c0.66 -0.08 1.2 -0.24 1.2 -0.74 l0 -9.94 c0 -0.7 -0.44 -0.88 -1.22 -0.76 l0 -0.64 c1.76 -0.32 2.54 -1.1 3 -1.1 c0.34 0 0.48 0.18 0.48 0.58 l0 4.02 l-0.14 1.22 c0.4 -0.64 1.6 -2.2 3.44 -2.2 c1.62 0 2.9 0.68 2.9 3.46 l0 5.36 z M32 17.8 c0 0.72 0.44 0.86 1.22 0.74 l0 0.7 c-1.76 0.42 -2.5 1 -3 1 c-0.34 0 -0.52 -0.18 -0.5 -0.6 l0.12 -1.5 c-0.44 0.96 -1.38 2.1 -3.1 2.1 c-1.42 0 -2.96 -0.7 -2.96 -2.54 s1.26 -3.06 5.94 -4.02 l0 -0.92 c0 -1.68 -0.12 -2.34 -1.02 -2.34 c-2.92 0 -1.38 3.02 -3.26 3.02 c-0.68 0 -1 -0.4 -1 -0.94 c0 -1.48 1.9 -2.7 4.34 -2.7 c2.26 0 3.22 0.68 3.22 3.08 l0 4.92 z M27.560000000000002 19.26 c1.24 0 1.96 -1.46 2.16 -2.12 l0 -2.84 c-3.32 0.72 -3.6 2.36 -3.6 3.24 c0 1.02 0.54 1.72 1.44 1.72 z M36.88 18.1 c0 0.72 0.44 0.88 1.22 0.8 l0 0.6 c-1.74 0.4 -2.48 0.74 -2.98 0.74 c-0.34 0 -0.48 -0.16 -0.48 -0.56 l0 -11 c0 -0.7 -0.44 -0.88 -1.22 -0.76 l0 -0.64 c1.76 -0.32 2.5 -1.1 2.98 -1.1 c0.34 0 0.48 0.18 0.48 0.58 l0 11.34 z M41.86 18.1 c0 0.72 0.44 0.88 1.22 0.8 l0 0.6 c-1.74 0.4 -2.48 0.74 -2.98 0.74 c-0.34 0 -0.48 -0.16 -0.48 -0.56 l0 -11 c0 -0.7 -0.44 -0.88 -1.22 -0.76 l0 -0.64 c1.76 -0.32 2.5 -1.1 2.98 -1.1 c0.34 0 0.48 0.18 0.48 0.58 l0 11.34 z M51.94 17.8 c0.2 0 0.28 0.2 0.14 0.46 c-0.54 1.12 -1.62 1.94 -3.36 1.94 c-2.68 0 -4.84 -1.82 -4.84 -5.22 c0 -3.32 2.24 -5.16 4.6 -5.16 c2.3 0 4.12 1.6 4.12 4.12 c0 0.76 -0.3 1.26 -1.08 1.26 l-5.24 0 c0.02 2.52 0.92 4.32 2.74 4.32 c1.02 0 1.74 -0.44 2.26 -1.42 c0.1 -0.18 0.16 -0.3 0.38 -0.3 l0.28 0 z M50.39999999999999 14.440000000000001 c0 -2.46 -0.54 -3.94 -1.92 -3.94 c-1.42 0 -2.18 1.48 -2.2 3.94 l4.12 0 z M63.17999999999999 18.62 c0 0.5 0.54 0.66 1.22 0.74 l0 0.64 c-1.56 -0.06 -3.12 -0.06 -4.7 0 l0 -0.64 c0.68 -0.06 1.22 -0.24 1.22 -0.74 l0 -5.32 c0 -1.5 -0.22 -2.5 -1.26 -2.5 c-1.38 0 -2.46 1.58 -2.68 2 l0 5.82 c0 0.5 0.54 0.68 1.22 0.74 l0 0.64 c-1.56 -0.06 -3.12 -0.06 -4.68 0 l0 -0.64 c0.66 -0.08 1.2 -0.24 1.2 -0.74 l0 -6.38 c0 -0.7 -0.44 -0.86 -1.22 -0.76 l0 -0.64 c1.76 -0.32 2.54 -1.1 3 -1.1 c0.34 0 0.52 0.24 0.48 0.62 l-0.18 1.66 c0.42 -0.64 1.62 -2.22 3.48 -2.22 c1.62 0 2.9 0.68 2.9 3.46 l0 5.36 z M74.17999999999999 9.84 c0.74 0 0.92 0.32 0.92 0.92 c0 0.46 -0.06 0.86 -0.54 0.84 c-0.36 -0.04 -0.58 -0.12 -0.86 -0.12 c-0.32 0 -0.38 0.22 -0.28 0.46 c0.16 0.4 0.32 0.84 0.32 1.46 c0 2.04 -1.62 3.52 -4.04 3.52 c-0.94 0 -1.58 -0.28 -2.14 -0.28 c-0.46 0 -0.66 0.24 -0.66 0.52 c0 0.46 0.52 0.68 1.64 0.84 l2.34 0.34 c2.44 0.36 3.68 1 3.68 2.8 c0 1.9 -2.14 3.2 -4.8 3.2 c-2.64 0 -4.5 -0.98 -4.5 -2.74 c0 -0.9 0.46 -1.56 1.34 -1.56 c0.54 0 0.96 0.26 0.96 0.78 c0 0.56 -0.2 0.68 -0.2 1.38 c0 0.76 0.84 1.52 2.44 1.52 c1.8 0 2.86 -0.82 2.86 -2.26 c0 -0.8 -0.48 -1.12 -1.66 -1.34 l-3.5 -0.62 c-1.6 -0.28 -2.2 -0.94 -2.2 -1.78 s0.7 -1.54 2 -1.5 c-0.98 -0.52 -1.68 -1.6 -1.68 -2.82 c0 -2.02 1.5 -3.58 4.02 -3.58 c1.62 0 2.48 0.66 3.1 1.3 c0.2 -0.76 0.64 -1.28 1.44 -1.28 z M69.67999999999999 16.240000000000002 c1.38 0 1.8 -1.48 1.8 -2.82 c0 -1.32 -0.42 -2.92 -1.8 -2.92 s-1.8 1.6 -1.8 2.92 c0 1.34 0.42 2.82 1.8 2.82 z M83.66 17.8 c0.2 0 0.28 0.2 0.14 0.46 c-0.54 1.12 -1.62 1.94 -3.36 1.94 c-2.68 0 -4.84 -1.82 -4.84 -5.22 c0 -3.32 2.24 -5.16 4.6 -5.16 c2.3 0 4.12 1.6 4.12 4.12 c0 0.76 -0.3 1.26 -1.08 1.26 l-5.24 0 c0.02 2.52 0.92 4.32 2.74 4.32 c1.02 0 1.74 -0.44 2.26 -1.42 c0.1 -0.18 0.16 -0.3 0.38 -0.3 l0.28 0 z M82.12 14.440000000000001 c0 -2.46 -0.54 -3.94 -1.92 -3.94 c-1.42 0 -2.18 1.48 -2.2 3.94 l4.12 0 z M93.18 7.58 c1.32 0.04 2.64 0.04 3.96 0 l0 0.64 c-1.14 0.06 -1.56 0.34 -1.9 0.98 l-2.9 5.62 l0 3.8 c0 0.5 0.38 0.66 1.46 0.72 l0 0.66 c-1.72 -0.06 -3.54 -0.06 -5.28 0 l0 -0.64 c1.08 -0.08 1.46 -0.24 1.46 -0.74 l0 -3.72 l-3.26 -5.92 c-0.22 -0.4 -0.44 -0.7 -1.5 -0.76 l0 -0.64 c1.76 0.04 3.52 0.04 5.26 0 l0 0.64 c-1.06 0.06 -1.3 0.36 -1.08 0.76 l2.6 4.86 l2.42 -4.66 c0.34 -0.66 -0.18 -0.9 -1.24 -0.96 l0 -0.64 z M102.88 7.26 c3.38 0 5.8 2.72 5.8 6.56 c0 3.7 -2.38 6.46 -5.74 6.46 c-3.38 0 -5.8 -2.72 -5.8 -6.56 c0 -3.72 2.38 -6.46 5.74 -6.46 z M103.2 19.56 c1.6 0 2.98 -1.46 2.98 -5.2 c0 -3.66 -1.48 -6.38 -3.62 -6.38 c-1.54 0 -2.92 1.44 -2.92 5.18 c0 3.66 1.48 6.4 3.56 6.4 z M122.74 8.22 c-1.08 0.08 -1.46 0.24 -1.46 0.74 l0 9.66 c0 0.5 0.38 0.66 1.46 0.74 l0 0.64 c-1.72 -0.06 -2.96 -0.06 -4.12 0 l0 -0.64 c0.2 -0.16 0.3 -0.34 0.3 -0.74 l0 -0.82 c-0.58 1.14 -1.78 2.4 -3.88 2.4 c-2.56 0 -4.1 -1.6 -4.1 -3.98 l0 -7.26 c0 -0.5 -0.38 -0.66 -1.46 -0.74 l0 -0.64 c1.72 0.06 3.58 0.06 5.3 0 l0 0.64 c-1.08 0.08 -1.46 0.24 -1.46 0.74 l0 7.26 c0 1.96 0.82 3.18 2.34 3.18 c1.6 0 2.72 -1.38 3.26 -2.56 l0 -7.88 c0 -0.5 -0.38 -0.66 -1.44 -0.74 l0 -0.64 c1.72 0.06 3.54 0.06 5.26 0 l0 0.64 z"></path>
        </g>
        <g id="SvgjsG3640" transform="matrix(0.6964982790731751,0,0,0.6964982790731751,101.84382691189866,49.94933745795159)" fill="#ffffff">
            <path d="M6.08 13.36 l-0.24 -0.000039062 l0.26 -0.46 l3.62 6.06 c0.08 0.14666 0.12 0.3 0.12 0.46 c0 0.24 -0.08666 0.44666 -0.26 0.62 s-0.38 0.26 -0.62 0.26 c-0.16 0 -0.31 -0.04 -0.45 -0.12 s-0.25 -0.18666 -0.33 -0.32 l-3.88 -6.5 l-0.86 0 l0 6.06 c0 0.24 -0.08666 0.44666 -0.26 0.62 s-0.38 0.26 -0.62 0.26 c-0.25334 0 -0.46668 -0.08666 -0.64002 -0.26 s-0.26 -0.38 -0.26 -0.62 l0 -14.02 c0 -0.24 0.08666 -0.44666 0.26 -0.62 s0.38668 -0.26 0.64002 -0.26 l3.52 0 c0.61334 0 1.19 0.11666 1.73 0.35 s1.01 0.55 1.41 0.95 s0.71666 0.86666 0.95 1.4 s0.35 1.1067 0.35 1.72 s-0.11666 1.1867 -0.35 1.72 s-0.55 1 -0.95 1.4 s-0.87 0.71666 -1.41 0.95 s-1.1167 0.35 -1.73 0.35 z M6.08 6.279999999999999 l-2.64 0 l0 5.3 l2.64 0 c0.36 0 0.70334 -0.07 1.03 -0.21 s0.61 -0.33 0.85 -0.57 s0.43 -0.52 0.57 -0.84 s0.21 -0.66 0.21 -1.02 s-0.07 -0.70334 -0.21 -1.03 s-0.33 -0.61 -0.57 -0.85 s-0.52334 -0.43 -0.85 -0.57 s-0.67 -0.21 -1.03 -0.21 z M36.778 20.22 c-0.10666 0.05334 -0.21992 0.08 -0.33992 0.08 c-0.17334 0 -0.33668 -0.04666 -0.49002 -0.14 s-0.26334 -0.22668 -0.33 -0.40002 l-1.58 -3.72 l-7.26 0 l-1.58 3.72 c-0.09334 0.22666 -0.25334 0.38666 -0.48 0.48 s-0.45332 0.08668 -0.67998 -0.01998 c-0.22666 -0.09334 -0.38666 -0.25334 -0.48 -0.48 s-0.08668 -0.45332 0.01998 -0.67998 l1.8 -4.26 l4.22 -9.88 c0.06666 -0.17334 0.17332 -0.30668 0.31998 -0.40002 s0.31332 -0.14 0.49998 -0.14 c0.17334 0 0.33334 0.04666 0.48 0.14 s0.25332 0.22668 0.31998 0.40002 c1.0133 2.3734 2.02 4.73 3.02 7.07 s2.0066 4.6966 3.02 7.07 c0.09334 0.22666 0.09334 0.45332 0 0.67998 s-0.25334 0.38666 -0.48 0.48 z M30.418 7.539999999999999 l-2.88 6.72 l5.74 0 z M59.156000000000006 20.3 c-1.1067 0 -2.1434 -0.21006 -3.11 -0.63006 s-1.81 -0.99 -2.53 -1.71 s-1.29 -1.5633 -1.71 -2.53 s-0.63 -2.0034 -0.63 -3.11 c0 -1.0933 0.21 -2.1166 0.63 -3.07 s0.99 -1.78 1.71 -2.48 s1.5633 -1.25 2.53 -1.65 s2.0034 -0.6 3.11 -0.6 c1.0667 0 2.08 0.19666 3.04 0.59 s1.82 0.97 2.58 1.73 c0.18666 0.18666 0.28 0.4 0.28 0.64 s-0.09334 0.44666 -0.28 0.62 c-0.17334 0.17334 -0.38 0.26 -0.62 0.26 s-0.44666 -0.08666 -0.62 -0.26 c-0.6 -0.6 -1.2733 -1.0533 -2.02 -1.36 s-1.5333 -0.46 -2.36 -0.46 c-0.86666 0 -1.6767 0.15666 -2.43 0.47 s-1.41 0.74 -1.97 1.28 s-1 1.1767 -1.32 1.91 s-0.48 1.5267 -0.48 2.38 s0.16334 1.6567 0.49 2.41 s0.77 1.41 1.33 1.97 s1.2167 1.0033 1.97 1.33 s1.5567 0.49 2.41 0.49 c0.82666 0 1.6133 -0.15334 2.36 -0.46 s1.42 -0.75332 2.02 -1.34 c0.17334 -0.18666 0.38 -0.28 0.62 -0.28 s0.44666 0.09334 0.62 0.28 c0.18666 0.17334 0.28 0.38 0.28 0.62 s-0.09334 0.44666 -0.28 0.62 c-0.76 0.76 -1.62 1.34 -2.58 1.74 s-1.9733 0.6 -3.04 0.6 z M81.13400000000001 20.3 c-0.25334 0 -0.46668 -0.08666 -0.64002 -0.26 s-0.26 -0.38 -0.26 -0.62 l0 -14.02 c0 -0.24 0.08666 -0.44666 0.26 -0.62 s0.38668 -0.26 0.64002 -0.26 c0.24 0 0.44666 0.08666 0.62 0.26 s0.26 0.38 0.26 0.62 l0 14.02 c0 0.24 -0.08666 0.44666 -0.26 0.62 s-0.38 0.26 -0.62 0.26 z M107.37200000000001 20.3 c-0.33334 0 -0.58668 -0.14 -0.76002 -0.42 l-7.22 -11.44 l0 10.98 c0 0.24 -0.08334 0.44666 -0.25 0.62 s-0.37666 0.26 -0.63 0.26 c-0.24 0 -0.44666 -0.08666 -0.62 -0.26 s-0.26 -0.38 -0.26 -0.62 l0 -14.02 c0 -0.24 0.08666 -0.44666 0.26 -0.62 s0.38 -0.26 0.62 -0.26 c0.33334 0 0.58668 0.13334 0.76002 0.4 l7.22 11.44 l0 -10.96 c0 -0.24 0.08334 -0.44666 0.25 -0.62 s0.37666 -0.26 0.63 -0.26 c0.24 0 0.44666 0.08666 0.62 0.26 s0.26 0.38 0.26 0.62 l0 14.02 c0 0.24 -0.08666 0.44666 -0.26 0.62 s-0.38 0.26 -0.62 0.26 z M137.07 17.96 c-0.76 0.76 -1.6234 1.3399 -2.59 1.7399 s-1.99 0.6 -3.07 0.6 c-1.1067 0 -2.1434 -0.21 -3.11 -0.63 s-1.81 -0.99 -2.53 -1.71 s-1.29 -1.5633 -1.71 -2.53 s-0.63 -2.0034 -0.63 -3.11 s0.21 -2.1334 0.63 -3.08 s0.99334 -1.77 1.72 -2.47 s1.5733 -1.25 2.54 -1.65 s1.9967 -0.6 3.09 -0.6 c1.08 0 2.1034 0.2 3.07 0.6 s1.83 0.98 2.59 1.74 c0.17334 0.17334 0.26 0.38 0.26 0.62 s-0.08666 0.44666 -0.26 0.62 c-0.18666 0.18666 -0.4 0.28 -0.64 0.28 s-0.44666 -0.09334 -0.62 -0.28 c-0.6 -0.58666 -1.2733 -1.0367 -2.02 -1.35 s-1.54 -0.47 -2.38 -0.47 c-0.85334 0 -1.6567 0.15334 -2.41 0.46 s-1.41 0.73 -1.97 1.27 s-1.0033 1.18 -1.33 1.92 s-0.49 1.5367 -0.49 2.39 s0.16334 1.6567 0.49 2.41 s0.77 1.41 1.33 1.97 s1.2167 1.0033 1.97 1.33 s1.5567 0.49 2.41 0.49 c0.77334 0 1.5133 -0.13334 2.22 -0.4 s1.3467 -0.65332 1.92 -1.16 l0 -3.76 l-4.04 0 c-0.25334 0 -0.46668 -0.08666 -0.64002 -0.26 s-0.26 -0.38 -0.26 -0.62 c0 -0.25334 0.08666 -0.46668 0.26 -0.64002 s0.38668 -0.26 0.64002 -0.26 l4.92 0 c0.25334 0 0.46668 0.08666 0.64002 0.26 s0.26 0.38668 0.26 0.64002 l0 5.02 c0 0.24 -0.08666 0.44666 -0.26 0.62 z M176.246 20.3 c-0.61334 0 -1.1867 -0.11668 -1.72 -0.35002 s-1 -0.55 -1.4 -0.95 s-0.71666 -0.86666 -0.95 -1.4 s-0.35 -1.1067 -0.35 -1.72 c0 -0.25334 0.08666 -0.46668 0.26 -0.64002 s0.38668 -0.26 0.64002 -0.26 c0.24 0 0.44666 0.08666 0.62 0.26 s0.26 0.38668 0.26 0.64002 c0 0.36 0.07 0.7 0.21 1.02 s0.33 0.6 0.57 0.84 s0.52 0.43 0.84 0.57 s0.66 0.21 1.02 0.21 s0.70334 -0.07 1.03 -0.21 s0.61 -0.33 0.85 -0.57 s0.43 -0.52 0.57 -0.84 s0.21 -0.66 0.21 -1.02 c0 -0.44 -0.08666 -0.80334 -0.26 -1.09 s-0.41334 -0.53666 -0.72 -0.75 c-0.14666 -0.10666 -0.31332 -0.20332 -0.49998 -0.28998 s-0.38 -0.17666 -0.58 -0.27 c-0.2 -0.08 -0.40666 -0.16 -0.62 -0.24 s-0.43334 -0.16 -0.66 -0.24 c-0.44 -0.16 -0.88334 -0.34 -1.33 -0.54 s-0.84666 -0.45 -1.2 -0.75 s-0.64334 -0.67334 -0.87 -1.12 s-0.34 -0.99666 -0.34 -1.65 c0 -0.61334 0.11666 -1.1867 0.35 -1.72 s0.55 -1 0.95 -1.4 s0.86666 -0.71666 1.4 -0.95 s1.1067 -0.35 1.72 -0.35 s1.19 0.11666 1.73 0.35 s1.01 0.55 1.41 0.95 s0.71666 0.86666 0.95 1.4 s0.35 1.1067 0.35 1.72 c0 0.24 -0.08666 0.44666 -0.26 0.62 s-0.38668 0.26 -0.64002 0.26 c-0.24 0 -0.44666 -0.08666 -0.62 -0.26 s-0.26 -0.38 -0.26 -0.62 c0 -0.36 -0.07 -0.70334 -0.21 -1.03 s-0.33 -0.61 -0.57 -0.85 s-0.52334 -0.43 -0.85 -0.57 s-0.67 -0.21 -1.03 -0.21 s-0.7 0.07 -1.02 0.21 s-0.6 0.33 -0.84 0.57 s-0.43 0.52334 -0.57 0.85 s-0.21 0.67 -0.21 1.03 c0 0.4 0.08334 0.73334 0.25 1 s0.40332 0.5 0.70998 0.7 c0.32 0.2 0.68 0.38 1.08 0.54 l0.64 0.24 l0.66 0.24 c0.44 0.16 0.88334 0.34334 1.33 0.55 s0.84666 0.46666 1.2 0.78 s0.64334 0.70334 0.87 1.17 s0.34 1.04 0.34 1.72 c0 0.61334 -0.11666 1.1867 -0.35 1.72 s-0.55 1 -0.95 1.4 s-0.87 0.71666 -1.41 0.95 s-1.1167 0.35 -1.73 0.35 z M200.28400000000002 13.36 l-2.64 -0.000039062 l0 6.06 c0 0.24 -0.08666 0.44666 -0.26 0.62 s-0.38 0.26 -0.62 0.26 c-0.25334 0 -0.46668 -0.08666 -0.64002 -0.26 s-0.26 -0.38 -0.26 -0.62 l0 -14.02 c0 -0.24 0.08666 -0.44666 0.26 -0.62 s0.38668 -0.26 0.64002 -0.26 l3.52 0 c0.61334 0 1.19 0.11666 1.73 0.35 s1.01 0.55 1.41 0.95 s0.71666 0.86666 0.95 1.4 s0.35 1.1067 0.35 1.72 s-0.11666 1.1867 -0.35 1.72 s-0.55 1 -0.95 1.4 s-0.87 0.71666 -1.41 0.95 s-1.1167 0.35 -1.73 0.35 z M200.28400000000002 6.279999999999999 l-2.64 0 l0 5.3 l2.64 0 c0.36 0 0.70334 -0.07 1.03 -0.21 s0.61 -0.33 0.85 -0.57 s0.43 -0.52 0.57 -0.84 s0.21 -0.66 0.21 -1.02 s-0.07 -0.70334 -0.21 -1.03 s-0.33 -0.61 -0.57 -0.85 s-0.52334 -0.43 -0.85 -0.57 s-0.67 -0.21 -1.03 -0.21 z M219.92200000000003 20.3 c-0.25334 0 -0.46668 -0.08666 -0.64002 -0.26 s-0.26 -0.38 -0.26 -0.62 l0 -14.02 c0 -0.24 0.08666 -0.44666 0.26 -0.62 s0.38668 -0.26 0.64002 -0.26 c0.24 0 0.44666 0.08666 0.62 0.26 s0.26 0.38 0.26 0.62 l0 14.02 c0 0.24 -0.08666 0.44666 -0.26 0.62 s-0.38 0.26 -0.62 0.26 z M240.84000000000003 13.36 l-0.24 -0.000039062 l0.26 -0.46 l3.62 6.06 c0.08 0.14666 0.12 0.3 0.12 0.46 c0 0.24 -0.08666 0.44666 -0.26 0.62 s-0.38 0.26 -0.62 0.26 c-0.16 0 -0.31 -0.04 -0.45 -0.12 s-0.25 -0.18666 -0.33 -0.32 l-3.88 -6.5 l-0.86 0 l0 6.06 c0 0.24 -0.08666 0.44666 -0.26 0.62 s-0.38 0.26 -0.62 0.26 c-0.25334 0 -0.46668 -0.08666 -0.64002 -0.26 s-0.26 -0.38 -0.26 -0.62 l0 -14.02 c0 -0.24 0.08666 -0.44666 0.26 -0.62 s0.38668 -0.26 0.64002 -0.26 l3.52 0 c0.61334 0 1.19 0.11666 1.73 0.35 s1.01 0.55 1.41 0.95 s0.71666 0.86666 0.95 1.4 s0.35 1.1067 0.35 1.72 s-0.11666 1.1867 -0.35 1.72 s-0.55 1 -0.95 1.4 s-0.87 0.71666 -1.41 0.95 s-1.1167 0.35 -1.73 0.35 z M240.84000000000003 6.279999999999999 l-2.64 0 l0 5.3 l2.64 0 c0.36 0 0.70334 -0.07 1.03 -0.21 s0.61 -0.33 0.85 -0.57 s0.43 -0.52 0.57 -0.84 s0.21 -0.66 0.21 -1.02 s-0.07 -0.70334 -0.21 -1.03 s-0.33 -0.61 -0.57 -0.85 s-0.52334 -0.43 -0.85 -0.57 s-0.67 -0.21 -1.03 -0.21 z M260.478 20.3 c-0.25334 0 -0.46668 -0.08666 -0.64002 -0.26 s-0.26 -0.38 -0.26 -0.62 l0 -14.02 c0 -0.24 0.08666 -0.44666 0.26 -0.62 s0.38668 -0.26 0.64002 -0.26 c0.24 0 0.44666 0.08666 0.62 0.26 s0.26 0.38 0.26 0.62 l0 14.02 c0 0.24 -0.08666 0.44666 -0.26 0.62 s-0.38 0.26 -0.62 0.26 z M284.576 6.279999999999999 l-3.24 0 l0 13.14 c0 0.24 -0.08666 0.44666 -0.26 0.62 s-0.38 0.26 -0.62 0.26 c-0.25334 0 -0.46668 -0.08666 -0.64002 -0.26 s-0.26 -0.38 -0.26 -0.62 l0 -13.14 l-3.24 0 c-0.24 0 -0.44666 -0.08334 -0.62 -0.25 s-0.26 -0.37666 -0.26 -0.63 c0 -0.24 0.08666 -0.44666 0.26 -0.62 s0.38 -0.26 0.62 -0.26 l8.26 0 c0.24 0 0.44666 0.08666 0.62 0.26 s0.26 0.38 0.26 0.62 c0 0.25334 -0.08666 0.46334 -0.26 0.63 s-0.38 0.25 -0.62 0.25 z M303.514 20.3 c-0.61334 0 -1.1867 -0.11668 -1.72 -0.35002 s-1 -0.55 -1.4 -0.95 s-0.71666 -0.86666 -0.95 -1.4 s-0.35 -1.1067 -0.35 -1.72 c0 -0.25334 0.08666 -0.46668 0.26 -0.64002 s0.38668 -0.26 0.64002 -0.26 c0.24 0 0.44666 0.08666 0.62 0.26 s0.26 0.38668 0.26 0.64002 c0 0.36 0.07 0.7 0.21 1.02 s0.33 0.6 0.57 0.84 s0.52 0.43 0.84 0.57 s0.66 0.21 1.02 0.21 s0.70334 -0.07 1.03 -0.21 s0.61 -0.33 0.85 -0.57 s0.43 -0.52 0.57 -0.84 s0.21 -0.66 0.21 -1.02 c0 -0.44 -0.08666 -0.80334 -0.26 -1.09 s-0.41334 -0.53666 -0.72 -0.75 c-0.14666 -0.10666 -0.31332 -0.20332 -0.49998 -0.28998 s-0.38 -0.17666 -0.58 -0.27 c-0.2 -0.08 -0.40666 -0.16 -0.62 -0.24 s-0.43334 -0.16 -0.66 -0.24 c-0.44 -0.16 -0.88334 -0.34 -1.33 -0.54 s-0.84666 -0.45 -1.2 -0.75 s-0.64334 -0.67334 -0.87 -1.12 s-0.34 -0.99666 -0.34 -1.65 c0 -0.61334 0.11666 -1.1867 0.35 -1.72 s0.55 -1 0.95 -1.4 s0.86666 -0.71666 1.4 -0.95 s1.1067 -0.35 1.72 -0.35 s1.19 0.11666 1.73 0.35 s1.01 0.55 1.41 0.95 s0.71666 0.86666 0.95 1.4 s0.35 1.1067 0.35 1.72 c0 0.24 -0.08666 0.44666 -0.26 0.62 s-0.38668 0.26 -0.64002 0.26 c-0.24 0 -0.44666 -0.08666 -0.62 -0.26 s-0.26 -0.38 -0.26 -0.62 c0 -0.36 -0.07 -0.70334 -0.21 -1.03 s-0.33 -0.61 -0.57 -0.85 s-0.52334 -0.43 -0.85 -0.57 s-0.67 -0.21 -1.03 -0.21 s-0.7 0.07 -1.02 0.21 s-0.6 0.33 -0.84 0.57 s-0.43 0.52334 -0.57 0.85 s-0.21 0.67 -0.21 1.03 c0 0.4 0.08334 0.73334 0.25 1 s0.40332 0.5 0.70998 0.7 c0.32 0.2 0.68 0.38 1.08 0.54 l0.64 0.24 l0.66 0.24 c0.44 0.16 0.88334 0.34334 1.33 0.55 s0.84666 0.46666 1.2 0.78 s0.64334 0.70334 0.87 1.17 s0.34 1.04 0.34 1.72 c0 0.61334 -0.11666 1.1867 -0.35 1.72 s-0.55 1 -0.95 1.4 s-0.87 0.71666 -1.41 0.95 s-1.1167 0.35 -1.73 0.35 z"></path>
        </g>
    </svg>