<svg width="1118" height="1082" viewBox="0 0 1118 1082" fill="none" xmlns="http://www.w3.org/2000/svg">
<path d="M707.944 460.696C701.219 453.94 694.098 450.567 686.361 450.536L616.681 450.526L623.552 442.548C623.552 442.548 658.992 393.826 644.718 358.939C632.772 329.702 595.536 316.117 565.411 315.668H402.83C392.503 315.668 383.68 319.646 376.162 327.906L261.478 460.017C261.29 460.164 249.407 472.402 249.261 485.579C249.146 495.155 252.498 504.364 259.337 511.204C266.166 518.064 275.365 521.145 284.993 521.145C295.216 521.145 303.131 516.362 310.701 508.186L417.104 384.188L486.126 385.263L250.639 657.694H92.8402C79.9966 657.694 69.0952 661.714 60.2822 669.859C51.4587 677.847 47 688.341 47 701.185C47 713.329 51.4692 723.593 60.3866 732.03C69.21 740.499 79.8295 744.644 92.1092 744.644H277.485C284.899 744.644 291.749 743.997 297.899 742.681C313.614 739.924 324.557 735.184 330.697 728.344L421.814 626.942L528.311 729.67L485.311 921.677C483.943 925.854 483.244 929.195 483.244 932.004C483.244 944.221 487.671 954.851 496.515 963.81C505.454 972.675 516 977.155 528.28 977.155C551.492 977.155 565.85 965.136 571.322 941.151L623.552 707.794C629.671 683.183 627.029 664.993 615.522 653.35L522.338 560.177L555.168 522.011L685.619 521.949C694.296 521.051 701.7 517.521 707.589 511.621C714.877 504.375 718.511 495.791 718.24 485.84C718.198 475.9 714.69 467.546 707.944 460.696Z" fill="url(#paint0_linear_2_3)"/>
<path d="M657.321 316.399C698.024 316.399 731.02 283.402 731.02 242.699C731.02 201.996 698.024 169 657.321 169C616.618 169 583.622 201.996 583.622 242.699C583.622 283.402 616.618 316.399 657.321 316.399Z" fill="url(#paint1_linear_2_3)"/>
<path d="M1058.28 463.891C1054.21 459.788 1049.88 457.741 1045.19 457.72H1002.94L1007.08 452.885C1007.08 452.885 1028.58 423.335 1019.93 402.179C1012.7 384.449 990.106 376.21 971.843 375.939H863.383C857.107 375.939 851.761 378.351 847.198 383.363L777.644 463.474C777.54 463.568 770.324 470.981 770.241 478.969C770.168 484.786 772.204 490.372 776.349 494.507C780.484 498.673 786.081 500.543 791.908 500.543C798.1 500.543 802.903 497.64 807.498 492.68L872.039 417.487L923.748 418.135L780.944 583.337H685.243C677.453 583.337 670.844 585.78 665.487 590.719C660.151 595.564 657.436 601.923 657.436 609.713C657.436 617.064 660.162 623.298 665.56 628.425C670.906 633.562 677.349 636.069 684.794 636.069H797.223C801.723 636.069 805.879 635.672 809.596 634.878C819.13 633.218 825.771 630.325 829.488 626.18L884.737 564.698L949.331 626.984L923.257 743.433C922.432 745.981 922.014 747.996 922.014 749.708C922.014 757.122 924.698 763.565 930.065 769.005C935.485 774.383 941.885 777.098 949.32 777.098C963.396 777.098 972.104 769.799 975.404 755.253L1007.08 613.733C1010.8 598.801 1009.22 587.775 1002.22 580.705L945.718 524.204L965.63 501.065L1044.74 501.023C1050 500.48 1054.5 498.339 1058.05 494.758C1062.49 490.372 1064.68 485.161 1064.51 479.126C1064.48 473.111 1062.36 468.037 1058.28 463.891Z" fill="url(#paint2_linear_2_3)"/>
<path d="M1026.3 375.103C1050.99 375.103 1071 355.089 1071 330.401C1071 305.713 1050.99 285.699 1026.3 285.699C1001.61 285.699 981.596 305.713 981.596 330.401C981.596 355.089 1001.61 375.103 1026.3 375.103Z" fill="url(#paint3_linear_2_3)"/>
<defs>
<linearGradient id="paint0_linear_2_3" x1="47" y1="315.668" x2="718.254" y2="315.668" gradientUnits="userSpaceOnUse">
<stop offset="0.35" stop-color="#FFCC00"/>
<stop offset="1" stop-color="#00A1FF"/>
</linearGradient>
<linearGradient id="paint1_linear_2_3" x1="583.622" y1="169" x2="731.02" y2="169" gradientUnits="userSpaceOnUse">
<stop offset="0.35" stop-color="#FFCC00"/>
<stop offset="1" stop-color="#00A1FF"/>
</linearGradient>
<linearGradient id="paint2_linear_2_3" x1="657.436" y1="375.939" x2="1064.52" y2="375.939" gradientUnits="userSpaceOnUse">
<stop offset="0.35" stop-color="#FFCC00"/>
<stop offset="1" stop-color="#00A1FF"/>
</linearGradient>
<linearGradient id="paint3_linear_2_3" x1="981.596" y1="285.699" x2="1071" y2="285.699" gradientUnits="userSpaceOnUse">
<stop offset="0.35" stop-color="#FFCC00"/>
<stop offset="1" stop-color="#00A1FF"/>
</linearGradient>
</defs>
</svg>
