<svg width="892" height="851" viewBox="0 0 892 851" fill="none" xmlns="http://www.w3.org/2000/svg">
<path d="M568.988 247.958C580.656 253.049 593.868 253.297 605.719 248.646C617.569 243.996 627.087 234.828 632.178 223.16C637.27 211.492 637.517 198.28 632.867 186.429C628.216 174.579 619.048 165.061 607.38 159.97C595.712 154.878 582.5 154.631 570.649 159.281C558.799 163.932 549.281 173.1 544.19 184.768C539.099 196.436 538.851 209.648 543.501 221.499C548.152 233.349 557.32 242.867 568.988 247.958ZM568.323 317.495L531.196 248.052C520.779 228.669 498.495 218.727 477.148 224.142L375.308 249.751C337.652 259.287 320.872 303.244 342.616 335.426L382.71 394.817L338.359 496.462C331.28 512.685 338.668 531.511 354.891 538.589C371.114 545.668 389.939 538.28 397.018 522.057L448.208 404.739C452.487 394.932 451.629 383.647 445.831 374.68L418.001 331.442L492.665 311.104L516.931 357.261C520.355 363.665 525.771 368.756 532.462 371.675L591.121 397.27C607.344 404.349 626.17 396.961 633.248 380.738C640.327 364.515 632.939 345.69 616.716 338.611L568.323 317.495ZM138.517 374.35C146.154 356.848 160.43 343.097 178.206 336.121C195.982 329.145 215.801 329.517 233.303 337.153C250.805 344.79 264.556 359.067 271.532 376.843C278.508 394.618 278.137 414.437 270.5 431.939C262.863 449.441 248.586 463.193 230.811 470.169C213.035 477.144 193.216 476.773 175.714 469.136C158.212 461.5 144.46 447.223 137.485 429.447C130.509 411.671 130.88 391.852 138.517 374.35ZM321.827 454.335C335.403 423.22 336.063 387.987 323.662 356.385C311.261 324.784 286.813 299.403 255.699 285.827C224.584 272.25 189.35 271.59 157.749 283.991C126.147 296.393 100.767 320.84 87.1903 351.955C73.6138 383.069 72.9536 418.303 85.355 449.904C97.7564 481.506 122.203 506.886 153.318 520.463C184.433 534.039 219.667 534.7 251.268 522.298C282.869 509.897 308.25 485.45 321.827 454.335ZM490.472 527.921C498.108 510.419 512.385 496.668 530.161 489.692C547.937 482.716 567.756 483.087 585.258 490.724C602.76 498.361 616.511 512.638 623.487 530.413C630.463 548.189 630.091 568.008 622.454 585.51C614.818 603.012 600.541 616.764 582.765 623.739C564.989 630.715 545.171 630.344 527.668 622.707C510.166 615.07 496.415 600.794 489.439 583.018C482.463 565.242 482.835 545.423 490.472 527.921ZM673.781 607.906C687.358 576.791 688.018 541.558 675.616 509.956C663.215 478.355 638.768 452.974 607.653 439.397C576.539 425.821 541.305 425.161 509.704 437.562C478.102 449.964 452.721 474.411 439.145 505.525C425.568 536.64 424.908 571.874 437.31 603.475C449.711 635.077 474.158 660.457 505.273 674.034C536.387 687.61 571.621 688.27 603.222 675.869C634.824 663.468 660.205 639.021 673.781 607.906Z" fill="black"/>
<path d="M51 517V851H860C860 851 770.559 808.064 723.485 780.605C676.411 753.146 619.682 790.395 555.364 780.605C489.456 770.574 432.148 772.42 397.33 729.682C375.142 702.447 397.33 691.239 379.173 649.302C361.016 607.365 297.802 555.442 258.798 553.945C219.794 552.447 51 517 51 517Z" fill="black"/>
</svg>
