<svg width="879" height="892" viewBox="0 0 879 892" fill="none" xmlns="http://www.w3.org/2000/svg">
<path d="M604.522 283.564C616.589 289.68 630.591 290.752 643.449 286.544C656.306 282.336 666.965 273.192 673.081 261.125C679.197 249.058 680.269 235.055 676.061 222.198C671.853 209.34 662.709 198.681 650.642 192.565C638.575 186.449 624.573 185.378 611.715 189.586C598.858 193.794 588.199 202.937 582.083 215.004C575.967 227.072 574.895 241.074 579.103 253.932C583.311 266.789 592.455 277.448 604.522 283.564ZM599.558 357.297L564.422 281.35C554.557 260.147 531.524 248.235 508.545 252.672L398.931 273.605C358.396 281.416 337.902 327.024 359 362.498L397.9 427.963L344.621 533.086C336.118 549.864 342.803 570.289 359.581 578.792C376.359 587.296 396.784 580.611 405.287 563.833L466.781 442.501C471.922 432.359 471.702 420.333 466.1 410.465L439.222 362.888L519.681 345.884L542.599 396.339C545.84 403.343 551.274 409.075 558.194 412.582L618.86 443.329C635.638 451.833 656.063 445.148 664.566 428.37C673.07 411.592 666.385 391.167 649.607 382.664L599.558 357.297ZM140.081 391.295C149.255 373.194 165.244 359.479 184.53 353.167C203.816 346.855 224.82 348.462 242.921 357.636C261.022 366.81 274.737 382.799 281.049 402.085C287.361 421.371 285.753 442.375 276.579 460.476C267.406 478.577 251.417 492.292 232.131 498.604C212.845 504.916 191.841 503.308 173.74 494.135C155.639 484.961 141.924 468.972 135.612 449.686C129.3 430.4 130.907 409.396 140.081 391.295ZM329.662 487.379C345.971 455.2 348.829 417.86 337.608 383.574C326.386 349.287 302.004 320.863 269.824 304.554C237.645 288.245 200.305 285.386 166.019 296.608C131.732 307.83 103.308 332.212 86.9988 364.391C70.6896 396.571 67.8314 433.911 79.0532 468.197C90.2749 502.484 114.657 530.908 146.836 547.217C179.016 563.526 216.356 566.384 250.642 555.163C284.928 543.941 313.353 519.559 329.662 487.379ZM504.076 575.777C513.25 557.676 529.239 543.961 548.525 537.649C567.811 531.337 588.815 532.945 606.916 542.118C625.017 551.292 638.732 567.281 645.044 586.567C651.356 605.853 649.748 626.857 640.574 644.958C631.4 663.059 615.412 676.774 596.126 683.086C576.84 689.398 555.836 687.791 537.735 678.617C519.634 669.443 505.919 653.454 499.607 634.168C493.295 614.882 494.902 593.878 504.076 575.777ZM693.657 671.862C709.966 639.682 712.824 602.342 701.603 568.056C690.381 533.769 665.999 505.345 633.819 489.036C601.64 472.727 564.3 469.869 530.014 481.09C495.727 492.312 467.303 516.694 450.994 548.874C434.685 581.053 431.826 618.393 443.048 652.679C454.27 686.966 478.652 715.39 510.831 731.699C543.011 748.008 580.35 750.867 614.637 739.645C648.923 728.423 677.348 704.041 693.657 671.862Z" fill="black"/>
<path d="M0 537.059V892H859.723C859.723 892 865 787 785.5 818C706 849 665.481 820.691 598 800.5C530.126 780.191 441.889 781.202 404.888 735.783C381.309 706.841 335.448 710.212 316.153 665.645C296.857 621.079 262.276 577.912 220.827 576.32C179.377 574.728 0 537.059 0 537.059Z" fill="black"/>
</svg>
