<svg width="892" height="851" viewBox="0 0 892 851" fill="none" xmlns="http://www.w3.org/2000/svg">
<path d="M619.856 278.461C631.211 284.216 644.387 285.225 656.486 281.265C668.585 277.305 678.615 268.701 684.37 257.346C690.126 245.991 691.134 232.814 687.174 220.715C683.214 208.617 674.61 198.586 663.255 192.831C651.9 187.076 638.724 186.067 626.625 190.027C614.526 193.987 604.496 202.591 598.741 213.946C592.985 225.302 591.977 238.478 595.937 250.577C599.897 262.676 608.501 272.706 619.856 278.461ZM615.185 347.844L582.122 276.377C572.839 256.425 551.165 245.216 529.541 249.392L426.395 269.089C388.251 276.439 368.966 319.357 388.82 352.738L425.425 414.341L375.289 513.261C367.287 529.049 373.578 548.269 389.366 556.271C405.154 564.273 424.374 557.982 432.376 542.194L490.242 428.021C495.079 418.477 494.872 407.161 489.601 397.875L464.309 353.105L540.021 337.104L561.586 384.582C564.636 391.173 569.75 396.567 576.261 399.868L633.348 428.801C649.136 436.802 668.356 430.512 676.358 414.724C684.36 398.936 678.069 379.716 662.281 371.714L615.185 347.844ZM182.817 379.836C191.449 362.803 206.495 349.897 224.643 343.958C242.791 338.018 262.556 339.531 279.589 348.163C296.622 356.796 309.528 371.841 315.467 389.99C321.407 408.138 319.894 427.902 311.262 444.935C302.629 461.968 287.584 474.874 269.435 480.814C251.287 486.754 231.522 485.241 214.49 476.608C197.457 467.975 184.551 452.93 178.611 434.782C172.671 416.633 174.184 396.869 182.817 379.836ZM361.212 470.252C376.559 439.971 379.249 404.834 368.689 372.57C358.13 340.307 335.186 313.559 304.905 298.212C274.625 282.865 239.488 280.176 207.224 290.736C174.96 301.295 148.213 324.239 132.866 354.52C117.519 384.8 114.829 419.937 125.389 452.201C135.949 484.465 158.893 511.212 189.173 526.559C219.454 541.906 254.591 544.595 286.854 534.036C319.118 523.476 345.865 500.532 361.212 470.252ZM525.336 553.434C533.969 536.401 549.015 523.495 567.163 517.555C585.311 511.616 605.076 513.128 622.109 521.761C639.141 530.394 652.047 545.439 657.987 563.587C663.927 581.736 662.414 601.5 653.781 618.533C645.149 635.566 630.103 648.472 611.955 654.412C593.807 660.352 574.042 658.839 557.009 650.206C539.976 641.573 527.071 626.528 521.131 608.38C515.191 590.231 516.704 570.467 525.336 553.434ZM703.732 643.85C719.079 613.569 721.769 578.432 711.209 546.168C700.649 513.905 677.706 487.157 647.425 471.81C617.144 456.463 582.007 453.774 549.744 464.333C517.48 474.893 490.733 497.837 475.386 528.118C460.039 558.398 457.349 593.535 467.909 625.799C478.468 658.062 501.412 684.81 531.693 700.157C561.974 715.504 597.111 718.193 629.374 707.634C661.638 697.074 688.385 674.13 703.732 643.85Z" fill="black"/>
<path d="M51 517V851H860C860 851 770.559 808.064 723.485 780.605C676.411 753.146 622.5 789 559 770C495.131 750.889 466.818 746.739 432 704C409.812 676.765 366.657 679.937 348.5 638C330.343 596.063 297.802 555.442 258.798 553.945C219.794 552.447 51 517 51 517Z" fill="black"/>
</svg>
