<svg width="746" height="850" viewBox="0 0 746 850" fill="none" xmlns="http://www.w3.org/2000/svg">
<path d="M0 849.028H746V559.879C746 559.879 669.132 544.096 611.796 604.704C554.459 665.311 582.813 675.412 553.829 704.454C524.846 733.495 482.521 726.742 435.377 733.495C367.174 743.264 318.184 720.237 258.958 733.495C199.731 746.753 212.333 778.951 146.806 794.102C81.2787 809.254 0 849.028 0 849.028Z" fill="black"/>
<path d="M582.811 176.75C587.556 161.432 586.02 144.858 578.544 130.672C571.067 116.487 558.262 105.852 542.945 101.108C527.627 96.3639 511.053 97.899 496.867 105.375C482.681 112.852 472.047 125.657 467.303 140.975C462.559 156.292 464.094 172.867 471.57 187.052C479.047 201.238 491.852 211.873 507.17 216.617C522.487 221.361 539.062 219.826 553.247 212.349C567.433 204.873 578.067 192.067 582.811 176.75ZM301.513 257.753C317.114 249.53 335.445 247.823 352.41 253.077C354.696 253.786 356.945 254.614 359.036 255.525L286.578 356.64C264.954 386.864 266.711 428.022 291.061 456.266L374.692 553.243L311.039 650.623C298.808 669.251 304.124 694.238 322.752 706.468C341.381 718.699 366.367 713.384 378.598 694.755L450.545 584.647C465.321 562.06 463.292 532.421 445.725 512.08L390.611 448.199L458.497 360.569L460.05 377.269C464.757 425.934 498.067 466.975 544.751 481.434L570.38 489.371C591.677 495.967 614.212 484.09 620.808 462.793C627.404 441.497 615.527 418.962 594.23 412.366L568.601 404.428C553.08 399.621 541.909 385.876 540.448 369.731L538.457 349.335C533.971 301.662 508.463 258.422 468.84 231.382L415.833 195.185C403.744 186.958 390.458 180.469 376.38 176.109C339.08 164.557 298.641 168.251 264.092 186.561L227.569 205.709C207.871 216.091 200.306 240.517 210.688 260.215C221.07 279.913 245.495 287.478 265.194 277.096L301.596 257.91L301.513 257.753ZM194.228 457.264L122.998 435.202C101.701 428.606 79.1663 440.483 72.5702 461.78C65.9742 483.077 77.8513 505.612 99.1482 512.208L182.892 538.145C205.753 545.225 230.622 538.159 246.334 520.213L269.823 493.335L260.628 482.576C243.634 462.939 233.917 438.964 231.758 414.428L194.228 457.264Z" fill="black"/>
</svg>
